# xmcd
#
# Track frame offsets: 
#        183
#        15528
#        31368
#        42463
#        60065
#        74053
#        86595
#        103073
#        118743
#        135368
#        151703
#        168085
#        183348
#        196863
#        210863
#        223613
#        238763
#
# Disc length: 3333 seconds
#
# Revision: 2
# Processed by: cddbd v1.5.2PL0 Copyright (c) Steve Scherf et al.
# Submitted via: ExactAudioCopyFreeDBPlugin 1.0
#
DISCID=db0d0311
DTITLE=Olivia Newton-John - Love Songs
DYEAR=1988
DGENRE=Country
TTITLE0=Please Mr Please
TTITLE1=Have You Never Been Mellow
TTITLE2=If
TTITLE3=Angel Of The Morning
TTITLE4=Behind That Locked Door
TTITLE5=God Only Knows
TTITLE6=Love Song
TTITLE7=No Regrets
TTITLE8=If You Could Read My Mind
TTITLE9=I Honestly Love You
TTITLE10=Amoureuse
TTITLE11=Where Are We Going To My Love
TTITLE12=Lullaby
TTITLE13=I Will Touch You
TTITLE14=Winterwood
TTITLE15=If We Only Have Love
TTITLE16=Changes
EXTD=
EXTT0=
EXTT1=
EXTT2=
EXTT3=
EXTT4=
EXTT5=
EXTT6=
EXTT7=
EXTT8=
EXTT9=
EXTT10=
EXTT11=
EXTT12=
EXTT13=
EXTT14=
EXTT15=
EXTT16=
PLAYORDER=
